<svg width="1065" height="311" viewBox="0 0 1065 311" fill="none" xmlns="http://www.w3.org/2000/svg">
<path d="M131 311C203.349 311 262 252.349 262 180C262 107.651 203.349 49 131 49C58.6507 49 0 107.651 0 180C0 252.349 58.6507 311 131 311Z" fill="#34A7FF"/>
<path d="M389.96 258.805C374.507 258.805 360.067 256.683 346.64 252.44V230.59C353.1 232.743 360.288 234.422 368.205 235.625C376.122 236.765 383.468 237.335 390.245 237.335C401.518 237.335 409.688 235.688 414.755 232.395C419.822 229.038 422.355 224.13 422.355 217.67C422.355 214.06 421.532 211.083 419.885 208.74C418.302 206.333 415.673 204.338 412 202.755C408.39 201.172 403.355 199.747 396.895 198.48L386.35 196.485C371.467 193.572 360.637 188.885 353.86 182.425C347.083 175.902 343.695 167.225 343.695 156.395C343.695 143.095 348.857 132.803 359.18 125.52C369.503 118.237 384.735 114.595 404.875 114.595C418.618 114.595 431.095 116.178 442.305 119.345V141.195C436.985 139.548 431.095 138.282 424.635 137.395C418.238 136.508 411.81 136.065 405.35 136.065C393.253 136.065 384.45 137.743 378.94 141.1C373.493 144.393 370.77 149.175 370.77 155.445C370.77 158.928 371.467 161.842 372.86 164.185C374.253 166.528 376.565 168.492 379.795 170.075C383.088 171.658 387.617 173.02 393.38 174.16L403.925 176.155C414.818 178.308 423.59 181.19 430.24 184.8C436.953 188.347 441.83 192.717 444.87 197.91C447.91 203.103 449.43 209.247 449.43 216.34C449.43 225.207 447.055 232.838 442.305 239.235C437.618 245.568 430.81 250.413 421.88 253.77C412.95 257.127 402.31 258.805 389.96 258.805ZM589.754 116.4L534.749 196.485V257H507.389V196.77L450.579 116.4H480.219L521.544 174.92L562.014 116.4H589.754ZM646.126 258.14C631.179 258.14 616.993 257.285 603.566 255.575V120.01C610.469 118.427 618.291 117.223 627.031 116.4C635.834 115.513 644.258 115.07 652.301 115.07C708.288 115.07 736.281 138.947 736.281 186.7C736.281 203.23 732.956 216.752 726.306 227.265C719.719 237.778 709.776 245.568 696.476 250.635C683.239 255.638 666.456 258.14 646.126 258.14ZM652.871 236.29C671.808 236.29 685.773 232.3 694.766 224.32C703.759 216.277 708.256 203.673 708.256 186.51C708.256 169.537 703.696 157.028 694.576 148.985C685.519 140.878 671.713 136.825 653.156 136.825C646.316 136.825 638.906 137.49 630.926 138.82V235.15C637.069 235.91 644.384 236.29 652.871 236.29ZM867.36 116.4H893.2V257H865.555L788.605 153.925V257H762.765V116.4H790.41L867.36 219.475V116.4ZM992.18 258.805C977.36 258.805 964.5 256.082 953.61 250.635C942.78 245.125 934.42 236.987 928.53 226.22C922.64 215.39 919.695 202.217 919.695 186.7C919.695 171.183 922.64 158.042 928.53 147.275C934.48 136.445 942.87 128.307 953.7 122.86C964.6 117.35 977.42 114.595 992.18 114.595C1007 114.595 1019.86 117.35 1030.75 122.86C1041.64 128.37 1050.03 136.54 1055.92 147.37C1061.81 158.137 1064.76 171.247 1064.76 186.7C1064.76 202.153 1061.78 215.295 1055.83 226.125C1049.88 236.892 1041.45 245.03 1030.56 250.54C1019.73 256.05 1006.94 258.805 992.18 258.805ZM992.18 236.955C1006.37 236.955 1017.32 232.838 1025.05 224.605C1032.84 216.372 1036.73 203.927 1036.73 187.27C1036.73 170.107 1032.81 157.345 1024.95 148.985C1017.16 140.625 1006.24 136.445 992.18 136.445C978.12 136.445 967.16 140.562 959.31 148.795C951.52 156.965 947.62 169.41 947.62 186.13C947.62 203.42 951.49 216.213 959.21 224.51C967 232.807 977.99 236.955 992.18 236.955Z" fill="#34A7FF"/>
<path d="M213.495 98.354L157.708 204.848L107 154.141L213.495 98.354Z" fill="white"/>
<path d="M51.354 260.495L157.848 204.708L107.141 154L51.354 260.495Z" fill="white"/>
<path d="M131.5 202C143.926 202 154 192.15 154 180C154 167.85 143.926 158 131.5 158C119.074 158 109 167.85 109 180C109 192.15 119.074 202 131.5 202Z" fill="#34A7FF"/>
<path d="M145 47.5C145 40.5964 139.404 35 132.5 35C125.596 35 120 40.5964 120 47.5V54.5C120 61.4036 125.596 67 132.5 67C139.404 67 145 61.4036 145 54.5V47.5Z" fill="#34A7FF"/>
<path d="M131.5 40C141.165 40 149 32.165 149 22.5C149 12.835 141.165 5 131.5 5C121.835 5 114 12.835 114 22.5C114 32.165 121.835 40 131.5 40Z" stroke="#34A7FF" stroke-width="10"/>
</svg>
